# xmcd CD database file
# Generated: Son Jul 6 09:19:28 2003 by KSCD
# 
# Track frame offsets:
#       150
#       10728
#       19505
#       30076
#       40979
#       50866
#       62363
#       72732
#       85060
#       99315
#       109662
#       119036
#       131583
#       141703
#       152033
#       163918
#       173388
#       186871
#       203887
#       219367
#       229593
#       261276
#       275672
#       289137
#       302701
#       322027
#       339297
#
# Disc length: 4739 seconds
#
# Revision: 1
# Processed by: cddbd v1.4PL0 Copyright (c) Steve Scherf et al.
# Submitted via: Kscd 1.3.3
#
DISCID=8812811b
DTITLE=The Beatles No.1 Hits 1962-1969 - The Beatles
DYEAR=1900
DGENRE=
TTITLE0=Love me do
TTITLE1=From me to you
TTITLE2=She loves you
TTITLE3=I want to hold your hand
TTITLE4=Can't buy me love
TTITLE5=A hard days night
TTITLE6=I feel fine
TTITLE7=Eight days a week
TTITLE8=Ticked to ride
TTITLE9=Help!
TTITLE10=Yesterday
TTITLE11=Day tripper
TTITLE12=We can work it out
TTITLE13=Paperback riter
TTITLE14=Yellow submarine
TTITLE15=Eleanor Rigby
TTITLE16=Penny Lane
TTITLE17=All you need is love
TTITLE18=Hello, godbye
TTITLE19=Lady Madonna
TTITLE20=Hey Jude
TTITLE21=Get back
TTITLE22=The ballad of John and Yoko
TTITLE23=Something
TTITLE24=Come together
TTITLE25=Let it be
TTITLE26=The long and winding road
EXTD=
EXTT0=
EXTT1=
EXTT2=
EXTT3=
EXTT4=
EXTT5=
EXTT6=
EXTT7=
EXTT8=
EXTT9=
EXTT10=
EXTT11=
EXTT12=
EXTT13=
EXTT14=
EXTT15=
EXTT16=
EXTT17=
EXTT18=
EXTT19=
EXTT20=
EXTT21=
EXTT22=
EXTT23=
EXTT24=
EXTT25=
EXTT26=
PLAYORDER=
